<svg xmlns="http://www.w3.org/2000/svg" width="20" height="20" viewBox="0 0 20 20">
    <g fill="#898989" fill-rule="nonzero">
        <path d="M17.697 3.403c.15 0 .272-.122.272-.273v-.857A.272.272 0 0 0 17.697 2H5.388a.272.272 0 0 0-.272.273v12.332c0 .15.122.273.272.273h12.309c.15 0 .272-.122.272-.273V4.04a.272.272 0 1 0-.544 0v4.67h-1.08a.272.272 0 0 0 0 .544h1.08v5.08H9.654v-1.319a.272.272 0 1 0-.544 0v1.319H5.66V2.545h3.45v8.507a.272.272 0 1 0 .544 0V9.253h4.841a.272.272 0 0 0 0-.545H9.654V2.545h7.77v.586c0 .15.123.272.273.272zM4.298 3.573L3.4 2.129a.272.272 0 0 0-.461 0L2.04 3.572a.273.273 0 0 0 .231.416h.626v1.14a.272.272 0 1 0 .544 0v-1.14h.625a.272.272 0 0 0 .231-.416zm-1.536-.129l.408-.656.407.656h-.815zM4.305 13.029a.272.272 0 0 0-.238-.14h-.625V5.855a.272.272 0 1 0-.544 0v7.032h-.626a.272.272 0 0 0-.23.417l.897 1.444a.272.272 0 0 0 .461 0l.898-1.444a.273.273 0 0 0 .007-.276zm-1.135 1.06l-.408-.656h.815l-.407.657zM17.84 16.597l-1.44-.9a.272.272 0 0 0-.417.232v.627H7.102v-.627a.273.273 0 0 0-.416-.231l-1.442.899a.273.273 0 0 0 0 .463l1.442.899a.271.271 0 0 0 .416-.232v-.626h8.881v.626a.273.273 0 0 0 .416.232l1.442-.9a.273.273 0 0 0 0-.462zm-11.282.64l-.655-.409.655-.408v.817zm9.97 0v-.817l.654.408-.655.409z"/>
    </g>
</svg>
