<svg xmlns="http://www.w3.org/2000/svg" width="20" height="20" viewBox="0 0 20 20">
    <g fill="#898989" fill-rule="nonzero">
        <path d="M18.792 9.187h-1.17V2.952A1.953 1.953 0 0 0 15.672 1c-1.074 0-1.949.876-1.949 1.952v.39h-.39a.39.39 0 0 0 0 .782h1.56a.39.39 0 0 0 0-.781h-.39v-.39c0-.647.525-1.172 1.17-1.172.644 0 1.17.525 1.17 1.171v6.235H1.17a1.172 1.172 0 0 0-.39 2.276c.002 1.132.043 2.596.637 3.85.505 1.064 1.327 1.788 2.453 2.167l-.265.99a.39.39 0 0 0 .753.202l.267-.998c.417.077.867.116 1.35.116h9.392l.236.882a.39.39 0 1 0 .753-.203l-.191-.715a3.524 3.524 0 0 0 3.016-3.484v-2.807a1.172 1.172 0 0 0-.39-2.275zm-13.334.781h3.119v2.743c0 .21-.17.38-.38.38H5.838a.381.381 0 0 1-.38-.38V9.968zm-4.288.781a.39.39 0 0 1 0-.78h3.508v.78H1.17zm17.232 1.562H16.23a.39.39 0 0 0 0 .78h2.172v1.178a2.74 2.74 0 0 1-2.736 2.74h-9.69a6.273 6.273 0 0 1-1.524-.17l-.007-.002-.01-.002c-1.093-.279-1.856-.893-2.314-1.858-.51-1.077-.557-2.4-.561-3.447h3.118v1.18c0 .641.52 1.163 1.16 1.163h2.358c.64 0 1.16-.522 1.16-1.162V11.53h9.046v.78zm.39-1.562H9.357v-.78h9.435a.39.39 0 0 1 0 .78z"/>
        <path d="M5.753 15.444c-1.143-.035-1.792-.346-2.171-1.042a.39.39 0 1 0-.685.374c.677 1.242 1.94 1.422 2.832 1.448h.012a.39.39 0 0 0 .012-.78zM6.919 15.447h-.025a.39.39 0 0 0 0 .78h.025a.39.39 0 0 0 0-.78zM15.096 12.311h-.018a.39.39 0 0 0 0 .78h.018a.39.39 0 0 0 0-.78z"/>
    </g>
</svg>
