<svg xmlns="http://www.w3.org/2000/svg" width="20" height="20" viewBox="0 0 20 20">
    <path fill="#898989" fill-rule="nonzero" d="M17.653 7.59H7.23c.063-.14.098-.295.098-.46v-.393c0-.624-.5-1.115-1.133-1.115H3.797c-.633 0-1.132.491-1.132 1.115v.393c0 .165.035.32.098.46h-.765V2.67c0-.36-.3-.656-.666-.656H.666A.663.663 0 0 0 0 2.67V17.1c0 .36.3.656.666.656h.666a.663.663 0 0 0 .666-.656v-4.264h15.988V17.1c0 .36.3.656.666.656h.666a.663.663 0 0 0 .666-.656V9.885c0-1.28-1.032-2.296-2.331-2.296zM3.33 7.13v-.393c0-.263.2-.46.466-.46h2.398c.267 0 .466.197.466.46v.393c0 .262-.2.46-.466.46H3.797a.452.452 0 0 1-.466-.46zM.666 2.67h.666v4.92H.666V2.67zm1 9.51c-.2 0-.334.132-.334.328V17.1H.666V8.245h3.997v3.935H1.665zm17.652 4.92h-.666v-4.592c0-.196-.133-.327-.333-.327H5.329V8.245h12.324c.932 0 1.665.722 1.665 1.64V17.1z"/>
</svg>
