<svg xmlns="http://www.w3.org/2000/svg" width="20" height="20" viewBox="0 0 20 20">
    <path fill="#898989" fill-rule="nonzero" d="M17.9 8.302l-.995-.768-5.301-4.152a1.786 1.786 0 0 0-2.208 0L4.095 7.534l-.995.768a.263.263 0 0 0-.05.36.246.246 0 0 0 .35.052l.6-.463v.827a.608.608 0 0 0-.147.113l-.131.117a.943.943 0 0 0-.454.657c-.028.155-.02.318.025.471a.34.34 0 0 1-.052.274 1.53 1.53 0 0 0-.132 1.385.964.964 0 0 0 .103.181c.057.08.078.187.054.285a1.106 1.106 0 0 0-.026.16c-.02.231.026.456.063.636.038.189.097.475.303.658.11.097.245.148.394.157v.776h-.663a.32.32 0 0 0-.246.117.34.34 0 0 0-.075.268l.269 1.834h13.003a.724.724 0 0 0 .712-.734V8.251l.6.464a.244.244 0 0 0 .35-.052.263.263 0 0 0-.05-.36zM3.792 13.251c-.033-.162-.068-.329-.054-.482a.585.585 0 0 1 .014-.083.884.884 0 0 0-.139-.716.454.454 0 0 1-.046-.083.997.997 0 0 1 .088-.888.861.861 0 0 0 .117-.709.523.523 0 0 1-.013-.23.422.422 0 0 1 .21-.303l.227-.191a.223.223 0 0 1 .122-.062.377.377 0 0 1 .063-.007l.012-.001c.028 0 .057.001.088.006a.54.54 0 0 1 .413.272c.038.076.05.18.031.27-.009.043-.01.087-.012.13a.794.794 0 0 0 .166.529c.03.038.052.087.062.136a.62.62 0 0 1 0 .215c-.013.08-.038.17-.077.27a1.46 1.46 0 0 1-.163.317c-.164.232-.188.56-.065.854.06.14.069.32.026.466-.099.335-.387.53-.55.617a.86.86 0 0 1-.124.053c-.099.033-.199.044-.256-.006-.078-.07-.116-.253-.14-.374zm.993 3.4h-1.07l-.175-1.187h1.42l-.175 1.188zm1.715 0v-.772h8.25v.773H6.5zm8.25-3.348v.773H6.5v-.773h8.25zm-8.25-.515v-.773h8.25v.773H6.5zm8.25-1.288H6.5v-.773h8.25v.773zM6.5 14.59h8.25v.774H6.5v-.773zm8.25-4.379H6.5V9.44h8.25v.772zm1.538 6.44H15.25V8.924H6v7.729h-.71l.194-1.32a.34.34 0 0 0-.074-.267.32.32 0 0 0-.246-.116H4.5v-.891l.041-.022c.403-.214.687-.543.8-.926.077-.262.06-.568-.046-.82a.423.423 0 0 1-.024-.27.242.242 0 0 1 .034-.076c.085-.121.161-.266.224-.432.095-.247.13-.465.114-.663-.003-.038-.005-.076-.012-.112a.837.837 0 0 0-.166-.362.282.282 0 0 1-.05-.223.962.962 0 0 0-.077-.616 1.04 1.04 0 0 0-.828-.55l5.533-4.334a.74.74 0 0 1 .914 0L16.5 8.994v7.44c0 .12-.095.218-.212.218zm.212-8.304l-5.241-4.105a1.228 1.228 0 0 0-1.518 0L4.5 8.347v-.483l.9-.695c.011-.01.018-.022.028-.032l4.271-3.345c.472-.37 1.13-.37 1.602 0l3.244 2.54a.252.252 0 0 0 .055.064l1.9 1.468v.483z"/>
</svg>
